HIERARCHY
ROOT Hips
{
	OFFSET 0.00000 0.00000 0.00000
	CHANNELS 6 Xposition Yposition Zposition Zrotation Yrotation Xrotation 
	JOINT LHipJoint
	{
		OFFSET 0 0 0
		CHANNELS 3 Zrotation Yrotation Xrotation
		JOINT LeftHip
		{
			OFFSET 1.62329 -1.80800 0.67318
			CHANNELS 3 Zrotation Yrotation Xrotation
			JOINT LeftKnee
			{
				OFFSET 2.57139 -7.06484 0.00000
				CHANNELS 3 Zrotation Yrotation Xrotation
				JOINT LeftAnkle
				{
					OFFSET 2.52017 -6.92413 0.00000
					CHANNELS 3 Zrotation Yrotation Xrotation
					JOINT LeftToe
					{
						OFFSET 0.23295 -0.64001 2.10214
						CHANNELS 3 Zrotation Yrotation Xrotation
						End Site
						{
							OFFSET 0.00000 -0.00000 1.10139
						}
					}
				}
			}
		}
	}
	JOINT RHipJoint
	{
		OFFSET 0 0 0
		CHANNELS 3 Zrotation Yrotation Xrotation
		JOINT RightHip
		{
			OFFSET -1.48061 -1.80800 0.67318
			CHANNELS 3 Zrotation Yrotation Xrotation
			JOINT RightKnee
			{
				OFFSET -2.63258 -7.23296 0.00000
				CHANNELS 3 Zrotation Yrotation Xrotation
				JOINT RightAnkle
				{
					OFFSET -2.54779 -7.00000 0.00000
					CHANNELS 3 Zrotation Yrotation Xrotation
					JOINT RightToe
					{
						OFFSET -0.23067 -0.63376 2.12161
						CHANNELS 3 Zrotation Yrotation Xrotation
						End Site
						{
							OFFSET -0.00000 -0.00000 1.11000
						}
					}
				}
			}
		}
	}
	JOINT lowerback
	{
		OFFSET 0 0 0
		CHANNELS 3 Zrotation Yrotation Xrotation
		JOINT Chest
		{
			OFFSET -0.02108 2.07573 -0.16981
			CHANNELS 3 Zrotation Yrotation Xrotation
			JOINT Chest2
			{
				OFFSET 0.05070 2.08439 -0.03141
				CHANNELS 3 Zrotation Yrotation Xrotation
				JOINT lowerneck
				{
					OFFSET 0 0 0
					CHANNELS 3 Zrotation Yrotation Xrotation
					JOINT Neck
					{
						OFFSET -0.10731 1.60408 0.31370
						CHANNELS 3 Zrotation Yrotation Xrotation
						JOINT Head
						{
							OFFSET 0.08411 1.65679 -0.30822
							CHANNELS 3 Zrotation Yrotation Xrotation
							End Site
							{
								OFFSET 0.03911 1.69149 -0.14146
							}
						}
					}
				}
				JOINT LeftCollar
				{
					OFFSET 0 0 0
					CHANNELS 3 Zrotation Yrotation Xrotation
					JOINT LeftShoulder
					{
						OFFSET 3.52315 0.73219 -0.54694
CHANNELS 3 Zrotation Xrotation Yrotation
						JOINT LeftElbow
						{
OFFSET 0 -5.324620 -0.000000
CHANNELS 3 Zrotation Xrotation Yrotation
							JOINT LeftWrist
							{
OFFSET 0 -3.484020 -0.000000
CHANNELS 3 Zrotation Xrotation Yrotation
								JOINT lhand
								{
									OFFSET 0 0 0
CHANNELS 3 Zrotation Xrotation Yrotation
									JOINT LFingers
									{
OFFSET 0 -0.572480 -0.000000
CHANNELS 3 Zrotation Xrotation Yrotation
										End Site
										{
OFFSET 0 -0.461540 -0.000000
										}
									}
								}
								JOINT LThumb
								{
OFFSET 0 0.000000 0.000000
CHANNELS 3 Zrotation Xrotation Yrotation
									End Site
									{
OFFSET 0 -0.468590 0.468590
									}
								}
							}
						}
					}
				}
				JOINT RightCollar
				{
					OFFSET 0 0 0
					CHANNELS 3 Zrotation Yrotation Xrotation
					JOINT RightShoulder
					{
						OFFSET -3.41766 0.93592 -0.10019
CHANNELS 3 Zrotation Xrotation Yrotation
						JOINT RightElbow
						{
OFFSET 0 -5.335890 -0.000000
CHANNELS 3 Zrotation Xrotation Yrotation
							JOINT RightWrist
							{
OFFSET 0 -3.641340 -0.000000
CHANNELS 3 Zrotation Xrotation Yrotation
								JOINT rhand
								{
									OFFSET 0 0 0
CHANNELS 3 Zrotation Xrotation Yrotation
									JOINT RFingers
									{
OFFSET 0 -0.734810 -0.000000
CHANNELS 3 Zrotation Xrotation Yrotation
										End Site
										{
OFFSET 0 -0.592420 -0.000000
										}
									}
								}
								JOINT RThumb
								{
OFFSET 0 0.000000 0.000000
CHANNELS 3 Zrotation Xrotation Yrotation
									End Site
									{
OFFSET 0 -0.601470 0.601470
									}
								}
							}
						}
					}
				}
			}
		}
	}
}
MOTION
Frames: 9
Frame Time: 0.008333333333333333
1.937732 17.478279 3.206401 1.391238 -12.635025 -2.489110 0.000000 0.000000 0.000000 -18.774226 -9.984514 -17.371180 1.448547 7.607970 21.529601 -0.221780 -8.388165 1.906828 0.513621 -4.593530 -12.752881 0.000000 0.000000 0.000000 14.597934 3.223116 -2.955462 -4.968956 -13.348520 40.688076 0.277408 17.577825 -9.535058 -0.029897 -1.114872 3.064927 3.838020 0.914788 11.014866 6.759771 2.010526 1.208268 4.654048 0.969438 -5.040822 -7.721931 -2.816885 -26.796330 4.119188 -1.947487 20.789892 2.453683 -0.966922 11.290080 0.000000 0.000000 0.000000 78.808830 -6.602781 44.463379 14.773461 -23.829530 3.133910 31.803583 22.693962 -32.767502 0.000000 0.000000 0.000000 -7.125000 0.000000 0.000000 -0.455475 67.118525 0.241369 0.000000 0.000000 0.000000 -77.410525 -5.687707 -51.527300 -16.173332 -25.755048 -3.721004 -41.944614 0.989316 5.360949 0.000000 0.000000 0.000000 7.125000 0.000000 0.000000 -12.899527 36.892808 -2.626250
2.196899 17.514912 3.555401 1.881515 -13.073130 -2.602289 0.000000 0.000000 0.000000 -20.838889 -8.661312 -16.934985 1.508644 7.757411 21.979688 -0.256467 -9.003597 2.131062 0.374217 -3.926174 -10.869458 0.000000 0.000000 0.000000 12.254224 3.522469 -3.923065 -5.669151 -14.099859 43.639028 0.629894 16.765116 -3.871552 -0.108586 -2.124094 5.848689 4.010917 0.872619 11.090455 7.048785 1.983900 1.320520 4.870239 0.954418 -4.968661 -7.666491 -2.559512 -26.231599 3.635603 -1.533809 21.046776 2.338059 -0.849596 11.253415 0.000000 0.000000 0.000000 78.121750 -7.455723 41.009388 16.332957 -25.969991 3.790642 32.393646 23.242698 -32.805322 0.000000 0.000000 0.000000 -7.125000 0.000000 0.000000 0.349761 67.337098 -0.187859 0.000000 0.000000 0.000000 -76.511049 -5.398676 -50.079434 -16.620945 -26.355357 -3.917526 -41.788827 1.325845 5.276429 0.000000 0.000000 0.000000 7.125000 0.000000 0.000000 -12.754250 36.771534 -2.634075
2.401015 17.550514 3.813712 2.085533 -13.856170 -2.499538 0.000000 0.000000 0.000000 -21.941147 -7.633529 -16.491655 1.478392 7.682582 21.754191 -0.278468 -9.463122 1.648866 0.219985 -3.018882 -8.331418 0.000000 0.000000 0.000000 10.622025 4.568049 -4.833531 -6.180987 -14.601498 45.703876 0.709281 15.436328 0.752534 -0.132984 -2.350367 6.474888 3.934607 0.894872 11.048510 7.328773 2.000025 1.449612 5.212516 0.965474 -4.823455 -7.673631 -2.416456 -25.869589 3.562923 -1.348263 21.329666 2.347442 -0.783884 11.282224 0.000000 0.000000 0.000000 79.819428 -8.574657 39.608037 17.890118 -28.016094 4.497613 32.624746 22.612889 -34.215617 0.000000 0.000000 0.000000 -7.125000 0.000000 0.000000 -0.179035 68.895586 0.107314 0.000000 0.000000 0.000000 -77.619179 -5.982649 -50.091975 -16.260849 -25.873076 -3.759081 -41.791228 0.966978 6.498609 0.000000 0.000000 0.000000 7.125000 0.000000 0.000000 -12.939794 38.360862 -2.158733
2.574029 17.579739 3.967282 1.771247 -14.393310 -2.339359 0.000000 0.000000 0.000000 -22.332027 -7.349459 -16.185988 1.477664 7.680857 21.748963 -0.268238 -9.582520 0.433734 0.317767 -3.623215 -10.019062 0.000000 0.000000 0.000000 9.941885 5.048381 -5.677129 -6.503707 -14.899319 46.971271 0.588047 13.506841 3.542030 -0.211813 -2.962657 8.174832 4.160789 0.856787 11.477968 7.551189 2.018070 1.502885 5.321078 0.969544 -5.009362 -7.593670 -2.250533 -26.040906 3.655405 -1.167207 22.002238 2.410810 -0.693863 11.556516 0.000000 0.000000 0.000000 84.836502 -10.121847 40.409702 20.459737 -31.191701 5.767831 34.096633 22.835853 -33.586826 0.000000 0.000000 0.000000 -7.125000 0.000000 0.000000 2.397795 68.693134 -1.364855 0.000000 0.000000 0.000000 -81.992995 -7.087249 -52.496267 -16.898041 -26.723014 -4.041457 -41.990499 1.049513 6.951979 0.000000 0.000000 0.000000 7.125000 0.000000 0.000000 -13.182055 38.968252 -1.999781
2.698960 17.600302 4.038223 1.759596 -14.753947 -1.780594 0.000000 0.000000 0.000000 -22.736006 -7.519170 -16.399645 1.422972 7.543485 21.335789 -0.243395 -9.293053 -0.056548 0.358920 -3.848671 -10.651361 0.000000 0.000000 0.000000 9.515246 4.755281 -7.111563 -6.811032 -15.170660 48.156031 0.483659 12.385479 2.390832 -0.068950 -1.690086 4.650035 3.730786 0.910267 11.580962 7.695353 2.066879 1.347590 5.717621 1.004676 -5.256318 -7.437262 -2.083598 -25.907690 3.490243 -0.965868 22.404108 2.363792 -0.620475 11.670799 0.000000 0.000000 0.000000 91.574987 -11.320551 41.352891 26.562083 -37.753396 9.231621 34.851330 23.873747 -31.722761 0.000000 0.000000 0.000000 -7.125000 0.000000 0.000000 4.390039 66.921027 -2.320014 0.000000 0.000000 0.000000 -88.832742 -7.368577 -52.043821 -21.152323 -32.002748 -6.131878 -42.273286 0.099422 5.922520 0.000000 0.000000 0.000000 7.125000 0.000000 0.000000 -13.268307 37.651556 -2.452276
2.777507 17.600534 4.046125 0.869382 -15.145182 -2.051058 0.000000 0.000000 0.000000 -22.022145 -6.992461 -16.185849 1.454054 7.621882 21.571266 -0.254938 -9.645662 -0.407377 0.393577 -4.026979 -11.152683 0.000000 0.000000 0.000000 11.062310 2.919922 -6.790749 -6.905504 -15.251799 48.515971 0.113032 10.517441 -5.408424 -0.060648 1.577413 -4.339416 4.396005 0.831514 12.335322 7.824695 2.106903 1.484467 5.471126 1.007067 -5.516992 -7.323704 -1.895263 -25.247183 3.582460 -0.831282 22.521458 2.402765 -0.543838 11.583095 0.000000 0.000000 0.000000 98.631557 -12.811013 42.673778 36.996359 -46.178269 16.239940 36.909389 29.888990 -28.717722 0.000000 0.000000 0.000000 -7.125000 0.000000 0.000000 8.206317 64.219756 -3.833611 0.000000 0.000000 0.000000 -95.633835 -7.335641 -49.815843 -29.546757 -40.495466 -11.116408 -44.297769 1.195733 4.738769 0.000000 0.000000 0.000000 7.125000 0.000000 0.000000 -14.784947 36.232908 -3.276012
2.790862 17.599193 3.981722 1.203605 -15.603518 -2.141809 0.000000 0.000000 0.000000 -22.181745 -6.899159 -16.169153 1.403741 7.494569 21.189222 -0.276226 -9.816934 0.153428 0.306532 -3.553839 -9.825249 0.000000 0.000000 0.000000 11.500337 1.434551 -6.439291 -7.161298 -15.466221 49.481696 -0.295626 7.861400 -10.400206 -0.077322 1.793650 -4.935653 4.075287 0.878644 12.098313 7.545029 2.082509 1.562445 5.351782 0.999659 -5.299442 -7.503659 -1.828262 -25.223950 3.733683 -0.722890 23.366580 2.523481 -0.507230 11.898437 0.000000 0.000000 0.000000 104.308430 -14.052809 42.895687 52.258999 -53.862348 27.989757 41.397339 40.001896 -25.845280 0.000000 0.000000 0.000000 -7.125000 0.000000 0.000000 14.684357 62.239841 -6.225025 0.000000 0.000000 0.000000 -101.785630 -7.697826 -47.745345 -42.337100 -49.390152 -20.197513 -48.092532 4.371993 3.331523 0.000000 0.000000 0.000000 7.125000 0.000000 0.000000 -17.619091 34.509300 -4.722936
2.735092 17.578204 3.833780 1.464379 -16.842321 -2.196767 0.000000 0.000000 0.000000 -21.790352 -6.799628 -16.542366 1.375798 7.422690 20.973817 -0.273956 -9.483587 1.170478 0.179926 -2.732010 -7.533614 0.000000 0.000000 0.000000 12.056733 2.170755 -5.001723 -7.378813 -15.642770 50.292846 -0.293247 8.562997 -10.597669 -0.106357 2.103074 -5.790525 3.888410 1.102552 11.972426 7.240037 2.327427 1.555089 5.086165 1.120960 -5.246011 -7.238919 -1.526883 -24.751588 3.585671 -0.405457 23.836662 2.484571 -0.373325 11.968143 0.000000 0.000000 0.000000 108.805525 -14.325963 40.951464 69.538936 -58.352792 42.378690 46.279904 46.750807 -24.854471 0.000000 0.000000 0.000000 -7.125000 0.000000 0.000000 21.620558 62.523027 -9.439137 0.000000 0.000000 0.000000 -107.035232 -8.616627 -45.964079 -60.470510 -56.422770 -34.735318 -48.855785 8.049450 0.385323 0.000000 0.000000 0.000000 7.125000 0.000000 0.000000 -17.455263 30.285317 -6.546125
2.624202 17.526067 3.594822 2.223366 -17.943328 -2.185051 0.000000 0.000000 0.000000 -21.575554 -6.917859 -17.500976 1.373692 7.417168 20.957293 -0.249038 -8.843911 2.398837 0.076742 -1.786414 -4.915815 0.000000 0.000000 0.000000 12.136383 3.942837 -2.839179 -7.014437 -15.343973 48.928839 -0.482072 5.776527 -12.413835 -0.124405 2.270470 -6.253954 3.347266 1.251620 11.801919 6.876552 2.433667 1.436486 4.985169 1.182186 -5.288181 -7.034595 -1.290324 -24.377064 3.395458 -0.129387 24.084401 2.427864 -0.264194 11.974425 0.000000 0.000000 0.000000 110.253338 -14.687726 39.856539 82.615281 -59.792639 53.609108 48.737781 52.271528 -25.377744 0.000000 0.000000 0.000000 -7.125000 0.000000 0.000000 25.699347 63.913566 -12.174460 0.000000 0.000000 0.000000 -111.347911 -9.882670 -44.196470 -81.592784 -59.729647 -52.725808 -51.817225 11.994815 -1.177988 0.000000 0.000000 0.000000 7.125000 0.000000 0.000000 -19.227795 27.850071 -8.466073
